<svg width="1229" height="533" viewBox="0 0 1229 533" fill="none" xmlns="http://www.w3.org/2000/svg">
<g clip-path="url(#clip0_1_30)">
<path d="M597.497 224.705C601.738 223.622 613.151 225.081 617.994 225.026C623.524 225.346 625.405 228.283 625.623 233.37C626.119 244.928 626.041 256.716 625.704 268.232C625.399 278.631 613.178 273.737 610.268 276.022C609.316 278.694 627.161 298.992 627.771 303.673C628.192 306.912 615.383 305.728 613.275 305.725C610.712 303.117 602.543 290.906 600.303 287.536C596.998 283.645 594.39 279.241 591.09 275.587C587.185 275.582 583.489 275.594 579.588 275.759C579.531 280.356 580.131 302.237 578.948 304.879C577.489 306.197 572.739 305.448 570.802 305.743C563.001 306.93 564.884 298.757 564.889 293.339L564.928 273.67L564.949 245.744C564.932 242.183 564.195 227.993 565.941 225.624C568.363 224.289 592.55 225.197 597.497 224.705ZM579.909 261.692C590.342 261.53 600.776 261.475 611.209 261.527C611.251 253.935 611.164 246.284 611.256 238.707C601.009 238.707 590.09 238.51 579.9 238.74C579.979 246.39 579.982 254.041 579.909 261.692Z" fill="#B67C2F"/>
<path d="M920.873 239.841C927.956 239.68 935 239.767 942.243 239.752C950.651 239.423 967.428 238.449 970.021 249.735C972.396 260.068 970.397 277.01 971.074 288.125C971.343 292.567 971.435 301.259 970.967 305.48C967.378 305.795 961.694 305.728 958.116 305.52L957.492 300.949C949.463 303.983 942.622 305.885 933.981 305.763C922.708 306.022 915.997 301.054 915.859 289.219C915.699 286.589 916.001 283.749 915.871 281.145C915.017 263.924 929.442 264.759 942.925 264.845C947.678 264.907 952.436 264.891 957.185 264.795C956.756 262.541 957.105 254.826 956.174 254.465C950.337 252.201 926.569 252.92 920.839 253.168C920.793 248.726 920.801 244.283 920.873 239.841ZM955.584 290.509L956.492 290.242C956.891 288.583 956.508 281.146 956.829 278.051C950.138 278.09 937.041 277.703 930.928 278.218C929.829 280.543 929.611 289.923 931.553 291.481C935.931 292.37 950.616 291.007 955.584 290.509Z" fill="#B67C2F"/>
<path d="M722.028 239.938C723.634 239.662 732.307 239.772 734.192 239.774L761.181 239.821C761.38 244.001 761.324 248.769 761.368 252.994C756.404 252.991 728.119 252.465 725.554 253.776C724.178 255.782 724.877 263.135 725.063 265.659C732.472 264.925 753.469 264.606 760.043 267.509C765.425 269.885 763.96 290.383 763.498 295.676C762.877 302.805 757.806 304.503 751.585 305.717C738.452 305.732 724.415 305.965 711.36 305.648C710.94 301.714 711.075 296.068 711.068 291.98L749.547 291.92L749.575 278.819C740.817 278.12 710.862 282.587 710.92 270.185C710.978 257.707 706.093 243.003 722.028 239.938Z" fill="#B67C2F"/>
<path d="M1015.48 239.99C1019.61 239.372 1029.1 239.643 1033.41 240.453C1049 243.384 1041.89 271.374 1043.44 281.53C1044.02 285.348 1043.33 303.816 1043.23 304.208C1041.23 306.546 1032.54 306.299 1029.99 304.668C1027.59 302.124 1030.94 259.081 1028.3 254.046C1027.23 251.996 1015.22 253.262 1012.16 253.58C1009.07 253.644 1003.71 254.259 1000.74 254.97C1000.43 258.627 1000.6 264.316 1000.61 268.071L1000.64 291.271C1000.65 294.505 1000.9 302.319 1000.04 305.063C998.136 306.238 989.717 305.679 987.231 305.501C986.005 300.434 986.216 280.52 986.323 274.276C986.507 263.962 985.929 250.409 986.511 240.293C990.318 240.193 996.06 239.76 999.883 240.477C999.994 240.498 1000.12 241.698 1000.16 241.925C1000.27 242.503 1000.47 242.99 1000.7 243.53C1000.94 243.646 1001.22 243.787 1001.55 243.951C1003.78 243.046 1006.48 242.061 1008.73 241.317C1011 240.568 1013.22 240.271 1015.48 239.99Z" fill="#B67C2F"/>
<path d="M682.996 239.851C687.276 239.7 692.282 239.827 696.617 239.829C696.955 245.95 697.091 303.805 696.268 304.975C693.941 306.249 686.772 305.733 683.756 305.669C683.522 303.782 683.549 302.755 682.348 301.422C672.481 305.064 668.45 305.711 658.078 305.876C636.312 306.221 640.004 288.39 640.108 271.84C640.094 261.481 639.918 250.589 640.208 240.273C644.605 240.13 649.438 240.24 653.868 240.256C654.469 255.364 652.951 274.448 654.687 289.512C655.249 294.387 678.53 291.291 682.901 290.032C682.244 286.803 682.359 241.488 682.996 239.851Z" fill="#B67C2F"/>
<path d="M782.713 222.599C787.209 222.488 791.708 222.485 796.206 222.59C796.298 225.91 795.689 237.595 796.968 239.266C798.944 240.837 808.88 240.256 811.998 240.266L812.048 253.211C807.57 253.834 801.331 253.515 796.811 253.151C796.405 264.5 796.734 277.806 796.742 289.306C797.554 290.256 798.749 291.145 799.737 291.935C803.56 292.038 807.747 291.96 811.6 291.967L811.573 299.387C811.608 301.448 811.554 303.619 811.535 305.689L806.306 305.76C781.745 305.993 782.406 296.388 782.487 276.03C782.52 268.424 782.514 260.817 782.47 253.21C779.866 253.433 776.396 253.091 773.723 252.91C773.57 248.824 773.66 244.389 773.675 240.273C780.046 240.363 783.817 241.072 782.629 233.345C782.201 230.563 782.46 225.406 782.713 222.599Z" fill="#B67C2F"/>
<path d="M855.067 217.213C857.986 217.145 862.858 216.982 865.735 217.283C869.864 217.716 867.75 230.984 868.183 234.333C868.883 239.788 866.949 288.116 868.78 290.653C871.209 292.572 873.871 292.051 877.019 291.975C877.234 294.176 877.464 304.011 876.644 305.735C852.88 306.148 853.838 299.187 853.838 278.155L853.83 255.145V231.737C853.83 227.856 853.776 223.832 853.91 219.953C853.964 218.385 854.194 218.301 855.067 217.213Z" fill="#B67C2F"/>
<path d="M888.698 240.271C893.164 240.151 898.029 240.256 902.522 240.267C902.79 246.745 903.338 301.848 902.062 305.4C899.036 305.729 892.299 305.642 889.211 305.49C887.959 300.226 887.649 245.84 888.698 240.271Z" fill="#B67C2F"/>
<path d="M825.455 240.303C829.572 240.133 834.356 240.261 838.52 240.28C839.171 261.103 838.229 282.489 838.535 303.363C838.551 304.542 838.179 304.862 837.471 305.641C833.311 305.697 829.4 305.733 825.244 305.592C824.911 304.366 824.57 302.243 824.543 300.977C824.129 281.561 824.29 262.083 824.424 242.662C824.432 241.721 824.861 240.995 825.455 240.303Z" fill="#B67C2F"/>
<path d="M889.556 215.832C892.843 215.735 897.742 215.074 900.729 216.011C904.548 217.208 903.411 227.609 902.196 230.32C896.727 230.243 887.346 232.909 888.238 225.667C888.645 222.369 887.124 218.456 889.556 215.832Z" fill="#B67C2F"/>
<path d="M825.566 215.803C827.757 215.737 836.582 215.153 837.708 216.171C839.018 217.355 839.447 228.256 837.85 230.27C826.856 230.292 823.409 233.574 824.194 220.299C824.34 217.856 823.846 217.708 825.566 215.803Z" fill="#B67C2F"/>
</g>
<g clip-path="url(#clip1_1_30)">
<g clip-path="url(#clip2_1_30)">
<path d="M330.5 235.215H338.667H344.167H345.833H347.333L348 235.5C348 235.5 348.262 235.56 348.5 236C348.75 236.462 348.75 238.758 348.75 239.5V271.44C348.15 271.815 347.867 271.889 347.154 271.941C342.186 272.3 336.871 271.712 331.934 272.047C323.1 272.646 314.309 272.441 305.45 272.443L265.837 272.44C260.842 272.435 255.924 272.107 250.957 272.428C247.483 272.653 244.945 271.613 242.418 274.597C242.145 276.524 242.238 280.77 242.237 282.869L242.251 297.864L242.256 344.264L242.264 359.249C242.267 361.335 242.381 364.651 242.269 366.659C240.953 368.235 232.402 375.775 230.756 376.112C227.918 375.662 215.954 364.111 213.429 361.42C208.784 356.466 203.232 351.753 198.881 346.516C198.061 345.548 198.154 344.619 198.264 343.48C203.306 336.949 208.892 330.87 214 324.384C214.221 324.103 214.337 323.792 214.27 323.428C213.257 320.059 210.729 317.086 209.213 313.926C207.511 310.376 206.064 306.653 204.768 302.941C203.459 299.193 203.32 295.77 200.09 293.097C193.929 292.63 187.761 291.882 181.619 291.193C178.738 290.87 176.69 290.615 173.898 289.759C173.525 289.381 173.133 289.007 172.974 288.482C172.774 288.235 172.475 287.943 172.25 287.707V245.606L172.569 245.427C173.891 243.894 176.799 243.752 178.708 243.537C184.125 242.927 189.615 242.801 195.033 242.147C197.043 241.904 199.032 242.334 200.704 241.006C202.856 239.529 202.797 236.167 205.084 235.099C206.348 234.892 209.755 234.999 211.169 235.004L224.313 235.026L296.127 235.026L312.699 235.027C314.87 235.024 323.5 235.164 326 235.215H330.5Z" fill="#9B3630"/>
<path d="M274.309 305.339C276.876 306.451 279.244 307.977 281.317 309.857C282.817 311.206 283.949 312.948 285.407 314.388C287.988 316.94 290.55 319.518 293.117 322.084L323.064 352.037L332.383 361.34C335.046 363.999 337.796 366.596 340.219 369.473C341.673 371.199 343.495 372.924 344.516 374.961C342.01 376.151 340.125 377.504 338.406 379.735C338.234 381.179 338.266 382.72 338.058 384.099C337.599 387.141 337.119 390.229 336.638 393.265C336.048 396.982 335.686 401.604 334.135 405H289.73C288.137 402.015 287.754 397.531 287.102 394.221C286.386 390.588 286.033 386.878 285.165 383.268C284.18 379.174 284.245 376.686 279.83 375.344C278.013 374.808 276.2 374.258 274.392 373.694C274.168 371.504 274.282 367.636 274.283 365.334L274.295 350.341L274.309 305.339Z" fill="#9B3630"/>
</g>
</g>
<g clip-path="url(#clip3_1_30)">
<g clip-path="url(#clip4_1_30)">
<path d="M290.5 133.089L320.201 133C320.23 133.03 320.259 133.06 320.288 133.089C324 133.089 330.005 133.117 332 133.089C334.026 135.375 332.276 133.614 334.026 135.375C336.909 138.273 337.185 153.347 338.566 158.116C338.891 159.24 339.35 160.253 339.975 161.241C343.326 162.265 347.05 163.889 350.4 165.044C351.48 165.417 352.596 165.747 353.674 166.136C355.509 167.122 357.959 167.797 359.723 168.744C362.975 170.491 365.872 173.095 369.262 174.603L369.425 174.512C373.239 172.365 376.58 169.283 379.958 166.534C381.915 164.941 383.994 163.461 386.012 161.943C387.649 160.712 389.32 159.254 391.179 158.385C391.986 158.007 392.839 157.82 393.72 158.059C395.999 158.676 403.055 166.361 405.076 168.287C406.316 169.468 407.682 170.508 408.936 171.673C411.751 174.29 414.424 177.117 417.145 179.836C419.153 181.842 421.326 183.796 423.188 185.931C423.772 186.601 424.221 187.349 424.634 188.134C424.909 188.66 425.169 189.193 425.416 189.732L425.356 189.923C424.455 192.733 418.749 198.857 416.674 201.238C415.344 202.794 414.024 204.359 412.715 205.932C411.659 207.196 410.279 208.728 409.694 210.273C409.396 211.3 409.995 213.386 410.544 214.243C413.434 218.765 415.619 223.558 417.47 228.586C418.686 231.89 419.246 235.492 420.723 238.714C421.195 239.745 422.609 240.898 423.739 241.274C432.364 243.138 441.368 242.802 450 244.53V287.709C448.316 290.068 448.756 290.25 445.495 290.771C440.76 291.511 435.761 291.473 431.03 292.008C427.97 292.354 422.367 292.605 420.495 295.269C419.617 296.515 418.758 300.795 418.21 302.519C417.513 304.665 416.769 306.796 415.98 308.91C415.197 311.016 413.971 313.408 412.891 315.394C411.246 318.42 409.238 320.56 409.413 324.249C410.253 325.747 412.985 328.959 414.146 330.311L420.485 337.654C422.241 339.692 423.994 341.591 425.098 344.096C425.371 344.485 425.658 344.865 425.954 345.236C424.79 347.795 419.591 351.801 417.486 353.818C413.915 357.341 410.401 360.926 406.821 364.441C405.896 365.35 404.733 366.129 403.83 367.023C400.393 370.425 396.61 373.455 393.32 377H392.72C391.45 375.732 389.571 374.811 388.419 373.66C382.579 367.825 376.764 361.933 370.894 356.13C368.856 354.115 366.847 352.641 364.671 350.417C361.31 346.985 358.41 343.601 354.994 340.227L332.874 318.605C329.79 315.53 326.654 312.52 323.895 309.141C323.267 308.373 321.23 306.362 321.526 305.451C323.376 304.822 328.456 305.027 330.64 305.027L340.625 305.029C346.904 305.03 353.986 304.875 360.221 305.056C364.791 304.902 369.711 305.905 374.387 305.525C376.594 305.345 377.787 305.79 379.717 304.089C381.999 302.077 381.527 299.622 381.529 296.871L381.521 289.945L381.527 268.244L381.534 225.941C381.538 219.088 381.691 211.817 381.568 205.019C379.049 201.438 376.935 201.977 373.06 201.988L364.969 202.002L335.458 202.007L240.879 202.01C233.047 202.01 225.207 201.973 217.376 202.027C214.337 202.047 211.638 202.575 208.457 202.49C206.096 200.848 204.835 198.775 202.91 196.837C200.887 194.8 198.97 192.285 197 190.312V190.217C199.142 188.034 200.999 184.928 203.222 182.525C207.284 178.134 211.626 174.346 215.933 170.289C220.428 166.056 224.711 161.74 229.563 157.849C231.817 156.041 235.325 160.324 237 161.538C239.898 163.539 250.529 174.214 253.227 174.62C254.926 174.181 256.424 172.825 257.954 172.032C260.667 170.627 263.616 168.827 266.442 167.695C268.4 166.911 270.599 165.867 272.529 165.176C275.776 164.054 280.407 163.001 283.187 161.052C285.645 159.329 285.918 151.468 286.226 148.648C286.567 145.659 286.998 142.681 287.52 139.718C287.72 138.521 287.819 136.662 288.533 135.662C289.465 134.357 287.933 135.627 290.5 133.089Z" fill="#B3792A"/>
<path d="M392.72 377C391.45 375.733 389.571 374.811 388.419 373.66C382.579 367.825 376.764 361.933 370.894 356.13C368.856 354.115 366.847 352.641 364.671 350.418C361.31 346.985 358.41 343.601 354.994 340.228L332.874 318.605C329.79 315.53 326.654 312.52 323.895 309.141C323.267 308.373 321.23 306.363 321.526 305.451C323.376 304.823 328.456 305.028 330.64 305.028L340.625 305.029C346.904 305.03 353.986 304.875 360.221 305.056C359.706 305.261 355.497 305.149 354.569 305.178C362.155 313.818 370.485 321.338 378.716 329.335C383.764 334.24 388.456 339.579 393.939 344.036C394.475 344.505 395.055 344.716 395.774 344.723C399.331 344.755 403.629 344.641 407.127 344.525C410.065 344.428 423.789 344.973 425.097 344.096C425.371 344.485 425.657 344.865 425.954 345.236C424.79 347.795 419.591 351.801 417.486 353.818C413.915 357.341 410.401 360.926 406.821 364.441C405.896 365.35 404.732 366.129 403.83 367.023C400.392 370.425 396.61 373.455 393.32 377H392.72Z" fill="#9C362F"/>
</g>
</g>
<defs>
<clipPath id="clip0_1_30">
<rect width="486" height="92" fill="white" transform="translate(563 215)"/>
</clipPath>
<clipPath id="clip1_1_30">
<rect width="177" height="171" fill="white" transform="translate(172 234)"/>
</clipPath>
<clipPath id="clip2_1_30">
<rect width="177" height="171" fill="white" transform="translate(172 234)"/>
</clipPath>
<clipPath id="clip3_1_30">
<rect width="253" height="244" fill="white" transform="translate(197 133)"/>
</clipPath>
<clipPath id="clip4_1_30">
<rect width="253" height="244" fill="white" transform="translate(197 133)"/>
</clipPath>
</defs>
</svg>
